<svg id="Capa_1" enable-background="new 0 0 511 511" height="512" viewBox="0 0 511 511" width="512" xmlns="http://www.w3.org/2000/svg"><g><g><path d="m389.852 63.503c-22.104-22.245-49.646-39.044-80.445-48.202l-21.369 5.621-12.296-12.337c-6.65-.717-13.409-1.085-20.242-1.085-104.938 0-190 85.604-190 191.211v27.578c0 105.607 85.062 191.211 190 191.211 6.833 0 13.592-.368 20.242-1.085 5.864-.607 11.656-1.508 17.337-2.648 37.397-7.556 70.83-26.163 96.772-52.27 34.382-34.602 55.648-82.405 55.648-135.208v-27.578c.001-52.804-21.265-100.606-55.647-135.208z" fill="#c97e67"/><path d="m312.482 140.5c-25.029 56.785-78.357 89-140.107 89-41.391 0-78.986-6.233-106.823-34.948-.029 1.383-.052 2.768-.052 4.158v27.579c0 105.607 85.062 191.211 190 191.211 6.833 0 13.592-.368 20.242-1.085 5.864-.607 11.656-1.508 17.338-2.648 37.397-7.556 70.83-26.163 96.772-52.27 34.382-34.602 55.648-82.405 55.648-135.208v-26.594c-5.7.696-11.491 1.053-17.356 1.053-45.965.001-87.235-25.744-115.662-60.248z" fill="#c0694e"/><path d="m394.38 226.74v137.88c0 41.75-18.42 79.19-47.58 104.65-12.2 10.66-26.29 19.22-41.7 25.11-15.4 5.89-32.12 9.12-49.6 9.12-34.95 0-66.89-12.91-91.3-34.23-29.16-25.45-47.58-62.9-47.58-104.65v-111.08c17.3 4.56 36.11 5.96 55.76 5.96 61.75 0 115.07-28.21 140.1-85 21.26 25.79 49.69 44.46 81.9 52.24z" fill="#ffdecf"/><path d="m330.097 398.824c-16.935 0-30.645-24.324-52.016-24.324-9.234 0-17.431 3.516-22.581 8.843-5.15-5.327-13.347-8.843-22.581-8.843-21.371 0-35.081 24.324-52.016 24.324-13.306 0-25.403-12.162-25.403-12.162 0 26.42 25.274 47.838 56.452 47.838 17.53 0 33.194-6.772 43.548-17.396 10.354 10.625 26.018 17.396 43.548 17.396 31.177 0 56.452-21.418 56.452-47.838 0 0-12.097 12.162-25.403 12.162z" fill="#c97e67"/><path d="m346.805 439.27c-24.412 21.316-56.35 34.23-91.305 34.23-34.952 0-66.888-12.912-91.299-34.225-29.159-25.459-47.581-62.905-47.581-104.655v30c0 41.75 18.422 79.196 47.581 104.655 24.411 21.313 56.347 34.225 91.299 34.225 34.954 0 66.893-12.914 91.305-34.23 29.155-25.458 47.575-62.903 47.575-104.65v-30c0 41.747-18.42 79.192-47.575 104.65z" fill="#ffcdbe"/></g><g><path d="m73 198.71c0-4.932.206-9.837.591-14.71h52.909v-15h-51.115c.817-5.054 1.848-10.056 3.075-15h35.04v-15h-30.639c8.25-24.202 21.526-46.582 39.27-65.696l-10.993-10.205c-34.266 36.911-53.138 85.072-53.138 135.611v27.579c0 31.309 7.042 61.286 20.931 89.097l13.42-6.702c-12.841-25.711-19.351-53.433-19.351-82.395z"/><path d="m438 226.289c0 32.74-8.671 64.891-25.076 92.975l12.952 7.565c17.745-30.377 27.124-65.143 27.124-100.54v-8.147h-15z"/><path d="m395.172 58.216c-23.286-23.435-52.204-40.76-83.628-50.104l-2.014-.599-19.228 5.058-11.119-11.159-2.637-.284c-6.942-.749-14.023-1.128-21.046-1.128-49.496 0-96.844 18.504-133.323 52.104l10.162 11.033c33.702-31.042 77.441-48.137 123.161-48.137 5.608 0 11.255.262 16.824.779l13.448 13.494 23.488-6.179c23.702 7.35 45.794 19.647 64.716 35.906h-36.476v15h51.996c4.426 4.81 8.575 9.813 12.427 15h-41.423v15h51.458c16.974 28.299 26.042 60.801 26.042 94.71v4.431h15v-4.431c0-53.07-20.537-102.965-57.828-140.494z"/><path d="m124.12 262.968c8.878 1.755 18.502 2.918 29.11 3.523l.854-14.976c-23.097-1.319-40.961-5.372-56.217-12.757l-6.535 13.502c5.615 2.718 11.515 5.022 17.788 6.954v105.406c0 38.08 14.547 74.148 40.963 101.561l10.801-10.408c-23.708-24.603-36.765-56.975-36.764-91.152z"/><path d="m341.872 463.621c-23.913 20.88-54.586 32.379-86.372 32.379-30.764 0-60.68-10.851-84.237-30.555l-9.624 11.506c26.251 21.957 59.585 34.049 93.861 34.049 35.415 0 69.592-12.813 96.238-36.081 6.246-5.454 12.068-11.479 17.305-17.907l-11.63-9.474c-4.703 5.774-9.932 11.184-15.541 16.083z"/><path d="m418.005 222.88c-38.416-2.85-73.836-21.726-99.737-53.15l-7.742-9.393-4.909 11.138c-22.555 51.175-71.118 80.525-133.237 80.525-1.223 0-2.442-.006-3.658-.017l-.142 14.999c1.263.012 2.529.018 3.8.018 64.06 0 115.139-28.655 141.926-79.085 20.398 21.676 45.325 36.933 72.574 44.625v132.08c0 25.479-7.3 50.188-21.112 71.456l12.58 8.17c15.395-23.706 23.532-51.239 23.532-79.625v-128.655c4.95.868 9.958 1.498 15.016 1.873z"/><path d="m160.817 381.373-12.817-12.887v18.176c0 30.514 28.688 55.338 63.952 55.338 16.293 0 31.784-5.32 43.548-14.783 11.764 9.463 27.255 14.783 43.548 14.783 35.264 0 63.952-24.824 63.952-55.338l-.016-18.01-12.787 12.706c-2.79 2.772-11.839 9.966-20.101 9.966-5.494 0-11.785-4.674-18.445-9.624-9.273-6.89-19.783-14.7-33.57-14.7-8.347 0-16.261 2.362-22.581 6.624-6.319-4.262-14.233-6.624-22.581-6.624-13.788 0-24.298 7.81-33.571 14.701-6.66 4.949-12.951 9.624-18.445 9.624-8.262-.001-17.311-7.195-20.086-9.952zm47.478 12.368c8.125-6.038 15.8-11.741 24.625-11.741 6.795 0 13.22 2.451 17.188 6.556l5.393 5.579 5.393-5.579c3.968-4.105 10.393-6.556 17.188-6.556 8.825 0 16.5 5.703 24.625 11.741 8.325 6.187 16.934 12.583 27.392 12.583 4.807 0 9.371-1.17 13.444-2.845-7.754 13.869-24.783 23.521-44.495 23.521-14.891 0-28.806-5.515-38.177-15.13l-5.371-5.512-5.371 5.512c-9.371 9.616-23.286 15.13-38.177 15.13-19.712 0-36.741-9.652-44.492-23.521 4.073 1.675 8.637 2.845 13.444 2.845 10.457 0 19.066-6.397 27.391-12.583z"/><path d="m188 302.5h15v15h-15z"/><path d="m308 302.5h15v15h-15z"/></g><g fill="#fff"><path d="m307.5 59h15v15h-15z"/><path d="m141.5 169h15v15h-15z"/></g></g></svg>